<?xml version="1.0" standalone="no"?>
<!DOCTYPE svg PUBLIC "-//W3C//DTD SVG 20010904//EN"
 "http://www.w3.org/TR/2001/REC-SVG-20010904/DTD/svg10.dtd">
<svg version="1.0" xmlns="http://www.w3.org/2000/svg"
 width="512.000000pt" height="512.000000pt" viewBox="0 0 512.000000 512.000000"
 preserveAspectRatio="xMidYMid meet">

<g transform="translate(0.000000,512.000000) scale(0.100000,-0.100000)"
fill="#f3a840" stroke="none">
<path d="M1580 4870 c-163 -23 -326 -100 -446 -212 -146 -137 -235 -311 -285
-555 -18 -89 -23 -146 -24 -327 l-3 -218 -88 -47 c-311 -164 -538 -377 -649
-606 -65 -133 -79 -198 -79 -345 -1 -141 18 -219 81 -345 115 -229 355 -451
658 -607 l80 -41 0 -211 c1 -241 14 -335 71 -506 112 -338 376 -560 714 -600
249 -29 539 57 848 251 51 33 97 59 102 59 6 0 42 -21 82 -46 535 -343 1011
-358 1344 -41 91 85 132 141 183 243 93 187 125 351 125 641 l1 211 55 27 c30
15 92 49 138 77 810 488 843 1225 77 1732 -60 40 -146 92 -190 116 l-80 42 -1
192 c-1 145 -7 219 -22 306 -87 480 -348 761 -752 811 -250 30 -584 -70 -892
-267 l-68 -44 -67 44 c-313 201 -656 301 -913 266z m217 -291 c142 -20 327
-91 470 -182 l43 -27 -98 -89 c-115 -104 -229 -222 -331 -343 -49 -58 -82 -88
-95 -88 -68 0 -348 -68 -648 -157 -16 -5 -18 5 -18 110 0 478 208 759 582 786
9 0 52 -4 95 -10z m1763 -15 c207 -58 347 -235 409 -519 25 -111 40 -355 23
-355 -5 0 -42 11 -83 25 -104 36 -365 100 -491 121 l-108 18 -102 119 c-56 66
-167 182 -247 258 -79 77 -142 141 -140 143 16 16 171 100 237 130 186 81 352
101 502 60z m-856 -515 c75 -72 136 -134 136 -137 0 -4 -126 -7 -280 -7 -154
0 -280 3 -280 7 0 8 271 268 280 268 4 0 69 -59 144 -131z m206 -449 c58 -5
132 -12 166 -16 l61 -6 97 -134 c178 -245 320 -491 436 -759 61 -141 63 -121
-33 -325 -112 -238 -279 -518 -436 -731 l-56 -77 -85 -11 c-47 -6 -179 -16
-293 -22 -216 -11 -526 -1 -706 22 l-86 12 -56 76 c-189 256 -359 553 -479
835 l-42 100 47 110 c63 146 191 394 266 514 34 54 108 163 166 243 l104 147
132 12 c73 6 141 13 152 14 51 8 551 4 645 -4z m-1370 -116 c0 -3 -13 -24 -28
-47 -54 -80 -126 -202 -193 -331 l-67 -128 -16 53 c-27 91 -80 338 -74 344 14
14 328 112 366 114 6 1 12 -2 12 -5z m2181 -28 c191 -53 239 -73 239 -101 0
-55 -76 -375 -89 -375 -4 0 -19 26 -35 58 -45 92 -145 270 -203 360 -29 45
-53 85 -53 87 0 9 15 6 141 -29z m-2812 -361 c18 -77 62 -229 98 -337 l65
-197 -56 -168 c-55 -166 -104 -344 -126 -455 -6 -32 -14 -58 -16 -58 -3 0 -36
18 -72 39 -245 144 -410 314 -475 489 -32 88 -30 236 5 320 60 144 159 263
311 376 97 72 220 146 228 137 3 -3 21 -69 38 -146z m3571 7 c150 -112 249
-233 308 -374 35 -84 37 -232 5 -320 -47 -128 -146 -252 -287 -362 -79 -62
-241 -166 -258 -166 -4 0 -8 8 -8 18 0 37 -80 333 -134 496 -38 115 -53 173
-47 185 35 65 141 430 171 586 6 33 13 66 15 73 5 15 128 -56 235 -136z
m-3201 -1007 c26 -59 170 -309 226 -392 24 -37 43 -68 41 -70 -5 -5 -303 82
-348 101 -21 9 -38 19 -38 22 0 26 89 384 96 384 2 0 12 -20 23 -45z m2635
-121 c19 -76 38 -158 42 -181 6 -41 6 -42 -32 -58 -46 -20 -345 -107 -350
-102 -2 2 13 28 33 58 53 77 160 260 213 361 29 55 48 82 52 74 4 -7 23 -76
42 -152z m-2683 -569 c127 -40 340 -92 474 -115 66 -11 125 -26 130 -33 6 -6
51 -58 99 -114 48 -57 153 -166 232 -242 l145 -140 -71 -41 c-168 -101 -343
-159 -501 -167 -185 -10 -312 39 -429 164 -119 127 -178 304 -187 567 -5 138
-4 159 9 154 8 -3 52 -18 99 -33z m2766 -127 c-9 -275 -67 -441 -201 -574
-122 -121 -231 -161 -416 -151 -159 8 -341 70 -511 172 l-59 37 152 147 c84
82 193 196 243 254 l89 106 71 11 c138 23 385 81 502 119 65 21 122 39 127 40
5 1 6 -70 3 -161z m-1184 -111 c-27 -27 -92 -87 -146 -134 -87 -76 -100 -85
-120 -75 -23 10 -199 165 -255 224 l-32 34 300 0 300 0 -47 -49z"/>
<path d="M2128 3141 c-81 -26 -135 -61 -195 -123 -135 -143 -160 -335 -68
-518 21 -43 99 -127 361 -390 l334 -335 334 335 c350 351 371 377 402 495 26
97 12 222 -37 317 -28 54 -113 143 -167 175 -147 87 -343 82 -481 -11 l-51
-35 -51 35 c-105 71 -261 93 -381 55z"/>
</g>
</svg>
