<?xml version="1.0" standalone="no"?>
<!DOCTYPE svg PUBLIC "-//W3C//DTD SVG 20010904//EN"
 "http://www.w3.org/TR/2001/REC-SVG-20010904/DTD/svg10.dtd">
<svg version="1.0" xmlns="http://www.w3.org/2000/svg"
 width="512.000000pt" height="512.000000pt" viewBox="0 0 512.000000 512.000000"
 preserveAspectRatio="xMidYMid meet">

<g transform="translate(0.000000,512.000000) scale(0.100000,-0.100000)"
fill="#f3a840" stroke="none">
<path d="M2435 5006 c-181 -36 -317 -110 -473 -260 -138 -132 -282 -341 -369
-533 l-37 -83 -97 0 c-547 0 -972 -198 -1129 -525 -55 -115 -73 -199 -74 -335
-1 -164 41 -325 132 -505 60 -120 182 -298 278 -404 l44 -49 -39 -79 c-81
-163 -146 -373 -172 -552 -16 -113 -7 -304 20 -406 11 -44 42 -123 68 -175 84
-168 241 -300 434 -364 139 -47 244 -59 439 -52 96 3 191 8 210 11 34 5 36 4
90 -81 64 -100 217 -266 310 -336 82 -63 224 -132 315 -154 94 -23 258 -23
350 0 93 24 234 93 316 155 164 125 341 354 455 589 l59 121 61 1 c34 0 119 5
190 10 568 45 928 275 1024 654 37 148 22 365 -37 529 -58 163 -176 364 -307
525 l-68 83 56 130 c168 389 198 703 93 990 -97 270 -296 430 -622 501 -72 16
-416 16 -487 1 l-47 -10 -60 91 c-174 263 -406 450 -621 501 -95 22 -223 27
-305 11z m337 -128 c121 -46 206 -103 323 -222 100 -101 215 -250 202 -262 -3
-3 -36 -13 -74 -23 -37 -10 -77 -21 -89 -25 -17 -5 -26 2 -49 36 -44 67 -182
204 -250 248 -101 66 -164 85 -280 84 -79 0 -112 -5 -156 -22 -240 -95 -459
-372 -612 -777 -43 -116 -99 -303 -112 -375 -5 -29 -29 -57 -127 -150 l-121
-114 7 54 c13 103 68 335 94 400 14 36 36 97 48 135 53 167 107 304 155 393
187 350 414 566 669 637 88 24 286 15 372 -17z m-127 -273 c73 -19 148 -63
224 -132 58 -52 141 -152 141 -169 0 -5 -24 -18 -52 -28 -102 -35 -324 -138
-452 -208 l-129 -70 -146 36 c-80 19 -170 38 -198 42 -29 4 -53 11 -53 16 0
16 41 91 98 178 65 101 216 255 288 293 57 30 143 55 189 56 17 1 58 -6 90
-14z m1313 -299 c295 -63 475 -232 549 -514 20 -79 25 -122 26 -232 1 -143
-11 -216 -59 -379 -22 -72 -108 -288 -120 -300 -3 -3 -38 28 -78 68 l-73 73
38 93 c67 161 90 263 96 415 6 150 -6 220 -54 320 -58 120 -202 222 -363 256
-97 21 -331 21 -460 0 -157 -26 -332 -82 -532 -171 -46 -21 -103 -44 -128 -53
-25 -8 -58 -20 -74 -25 -56 -20 -321 -178 -352 -210 -17 -18 -90 -74 -162
-126 -147 -104 -354 -274 -482 -394 -47 -43 -95 -83 -106 -87 -40 -16 -354
-381 -354 -412 0 -5 -28 -48 -61 -95 l-62 -85 -59 59 c-87 86 -87 83 -32 161
277 391 722 813 1184 1120 417 278 895 478 1245 521 50 6 101 13 115 15 51 9
287 -3 358 -18z m-2450 -288 c-2 -7 -16 -52 -32 -99 l-29 -85 -131 -12 c-361
-33 -615 -160 -713 -359 -33 -67 -38 -85 -41 -167 -8 -192 78 -407 258 -647
129 -172 407 -429 649 -603 301 -215 785 -465 1061 -547 51 -15 50 -15 -88
-90 l-93 -51 -107 43 c-108 43 -452 213 -507 250 -55 38 -299 191 -362 228
-195 113 -578 467 -731 675 -286 388 -359 749 -210 1028 127 239 441 401 842
437 150 13 238 13 234 -1z m2404 -17 c107 -27 167 -61 226 -125 79 -88 96
-141 96 -311 0 -114 -4 -156 -22 -223 -19 -71 -73 -219 -88 -244 -3 -4 -40 21
-82 55 -42 35 -118 93 -168 130 l-91 67 -17 97 c-23 131 -87 378 -125 481 -17
46 -31 85 -31 88 0 2 51 4 113 4 80 0 136 -6 189 -19z m-358 -139 c49 -149
109 -384 104 -412 -2 -14 -24 -5 -114 49 l-112 66 -17 65 c-9 36 -35 121 -58
190 -23 69 -42 130 -42 135 0 11 114 43 161 44 l32 1 46 -138z m-1464 98 c184
-35 179 -24 48 -112 l-114 -76 -80 15 c-43 8 -80 16 -81 17 -4 3 44 121 63
159 11 20 20 26 37 22 12 -2 69 -13 127 -25z m1172 -175 c26 -77 47 -143 47
-148 1 -4 -61 24 -136 61 -76 38 -164 79 -196 92 -36 14 -55 26 -49 32 15 15
255 108 272 105 10 -1 31 -51 62 -142z m-362 -75 c187 -75 554 -271 740 -396
41 -27 107 -71 145 -97 189 -125 460 -369 613 -552 151 -180 287 -423 332
-590 30 -110 37 -277 16 -375 -44 -209 -201 -384 -435 -486 -161 -70 -387
-113 -587 -114 l-111 0 31 94 31 94 90 6 c207 16 392 61 519 129 94 50 189
146 233 234 33 67 38 86 41 167 15 366 -318 825 -902 1243 -104 75 -337 216
-486 296 -129 68 -394 190 -495 227 -49 18 -94 36 -98 40 -5 4 27 27 70 51 43
24 87 49 98 55 32 19 49 16 155 -26z m-1490 7 c0 -6 -5 -28 -10 -47 -20 -69
-69 -317 -84 -429 l-16 -114 -63 -71 c-92 -104 -186 -220 -250 -309 l-55 -78
-61 83 c-34 46 -86 133 -116 193 -148 296 -122 494 83 628 117 77 279 128 458
146 49 4 95 9 102 10 6 0 12 -5 12 -12z m479 -23 l31 -6 -62 -49 c-33 -27 -62
-49 -64 -49 -2 0 3 21 11 48 8 26 15 50 15 55 0 9 27 9 69 1z m658 -165 c202
-71 557 -239 760 -358 118 -70 107 -46 123 -286 12 -187 12 -440 0 -610 l-9
-130 -93 -88 c-181 -172 -576 -478 -636 -494 -43 -11 -449 147 -650 254 -87
46 -316 177 -331 189 -25 22 -49 589 -34 807 l10 128 49 50 c68 70 216 199
359 314 121 97 341 255 356 255 4 0 47 -14 96 -31z m1072 -569 c131 -90 122
-70 122 -270 l-1 -172 -74 -92 c-41 -50 -88 -106 -103 -124 l-28 -33 0 343 c0
189 -4 358 -7 376 -4 17 -5 32 -2 32 3 0 45 -27 93 -60z m-2044 -412 c0 -150
3 -313 8 -361 l7 -88 -88 60 c-49 34 -97 70 -106 80 -14 15 -18 47 -23 177
l-5 159 49 65 c41 53 151 180 157 180 0 0 1 -123 1 -272z m2311 211 l23 -21
-26 -39 c-14 -22 -27 -39 -29 -39 -2 0 -4 27 -4 60 0 33 3 60 7 60 4 0 17 -10
29 -21z m189 -306 c-244 -343 -643 -736 -1030 -1011 -193 -137 -388 -257 -565
-346 -151 -77 -367 -169 -414 -178 -15 -2 -29 14 -63 77 -23 44 -43 82 -43 85
0 3 42 21 93 39 159 58 377 159 525 244 79 45 151 89 160 98 9 8 53 39 97 69
399 267 810 661 1077 1033 l71 99 70 -70 70 -70 -48 -69z m-2809 -111 c-3 -3
-15 3 -25 12 -20 18 -20 18 2 52 l22 33 3 -45 c2 -26 1 -49 -2 -52z m3019 -28
c71 -105 131 -233 157 -336 70 -277 -80 -462 -443 -548 -75 -17 -278 -42 -287
-34 -2 1 10 62 27 136 30 133 52 254 70 381 9 65 13 71 79 145 90 101 186 220
252 311 l53 73 19 -23 c10 -13 43 -60 73 -105z m-3424 -160 l67 -66 -39 -93
c-65 -156 -90 -262 -96 -415 -6 -150 6 -220 54 -320 36 -74 123 -159 203 -198
108 -52 168 -64 344 -67 l158 -3 44 -93 c32 -66 41 -96 34 -103 -7 -7 -81 -11
-208 -11 -155 0 -212 4 -267 18 -235 59 -385 166 -474 337 -65 125 -84 209
-85 380 -1 152 10 225 59 392 30 105 115 308 129 308 6 0 40 -30 77 -66z m402
-328 l64 -46 17 -87 c26 -133 90 -376 130 -488 19 -55 32 -102 29 -105 -12
-12 -242 -1 -302 15 -260 68 -358 275 -290 608 16 83 72 251 94 287 3 5 48
-24 100 -65 52 -41 123 -94 158 -119z m2415 -83 c-56 -314 -168 -654 -289
-882 -187 -351 -419 -569 -674 -636 -78 -20 -232 -20 -310 0 -93 24 -212 86
-295 152 -96 77 -141 125 -230 243 -93 124 -251 441 -315 632 -41 124 -115
403 -115 434 0 18 213 -112 227 -139 7 -12 24 -62 38 -112 116 -401 301 -726
507 -889 198 -158 399 -177 604 -55 81 47 218 187 290 294 139 208 264 510
326 788 13 56 17 61 133 167 66 61 121 110 121 110 1 0 -7 -48 -18 -107z
m-370 -277 c-10 -40 -16 -46 -38 -45 -61 1 -62 12 -7 55 28 23 53 40 55 39 1
-1 -3 -23 -10 -49z m-1158 -139 l65 -28 -35 -18 c-32 -17 -195 -80 -247 -95
-19 -6 -24 1 -51 71 -31 80 -72 208 -72 224 0 5 62 -22 138 -59 75 -37 166
-80 202 -95z m1042 2 l67 -11 -23 -63 c-40 -105 -54 -126 -79 -121 -12 3 -49
10 -82 16 -33 6 -92 18 -132 27 l-72 16 112 78 c62 42 119 75 127 73 8 -2 45
-8 82 -15z m-302 -243 c74 -19 161 -37 193 -41 67 -9 67 -3 6 -111 -130 -227
-306 -382 -471 -415 -146 -29 -311 55 -459 233 -27 33 -49 62 -49 66 0 4 44
23 97 42 95 34 409 184 488 233 22 14 45 26 50 26 6 0 71 -14 145 -33z"/>
<path d="M2204 3029 c-68 -26 -132 -84 -169 -150 -24 -45 -30 -69 -33 -139 -9
-198 91 -393 277 -541 91 -71 244 -159 279 -159 28 0 128 49 207 103 232 156
354 358 355 583 0 92 -22 152 -77 214 -118 132 -310 146 -441 34 l-42 -36 -42
36 c-85 73 -211 95 -314 55z m191 -98 c48 -22 77 -49 110 -102 20 -31 31 -39
55 -39 24 0 35 8 55 39 86 137 236 161 342 55 61 -61 77 -138 52 -256 -35
-170 -186 -347 -383 -449 -60 -31 -65 -32 -97 -19 -69 29 -209 132 -274 202
-105 114 -165 264 -153 388 14 144 168 239 293 181z"/>
</g>
</svg>
