<?xml version="1.0" standalone="no"?>
<!DOCTYPE svg PUBLIC "-//W3C//DTD SVG 20010904//EN"
 "http://www.w3.org/TR/2001/REC-SVG-20010904/DTD/svg10.dtd">
<svg version="1.0" xmlns="http://www.w3.org/2000/svg"
 width="512.000000pt" height="512.000000pt" viewBox="0 0 512.000000 512.000000"
 preserveAspectRatio="xMidYMid meet">

<g transform="translate(0.000000,512.000000) scale(0.100000,-0.100000)"
fill="#ffffff" stroke="none">
<path d="M2500 5109 c-29 -12 -67 -46 -83 -74 -7 -11 -14 -72 -17 -135 l-5
-115 -100 -12 c-499 -62 -950 -281 -1307 -637 -357 -354 -579 -809 -641 -1311
l-12 -100 -117 -5 c-126 -5 -147 -14 -192 -74 -29 -39 -29 -133 0 -172 45 -60
66 -69 192 -74 l117 -5 12 -100 c91 -740 540 -1382 1199 -1718 245 -125 455
-190 724 -226 l125 -17 5 -116 c5 -126 14 -147 74 -192 39 -29 133 -29 172 0
60 45 69 66 74 192 l5 117 100 12 c501 62 953 282 1310 638 355 356 576 809
638 1310 l12 100 117 5 c126 5 147 14 192 74 29 39 29 133 0 172 -45 60 -66
69 -192 74 l-117 5 -12 100 c-62 501 -282 952 -639 1309 -356 357 -809 577
-1309 639 l-100 12 -5 117 c-5 125 -14 148 -72 191 -31 23 -111 32 -148 16z
m-100 -949 c0 -159 -3 -290 -6 -290 -35 0 -222 -48 -292 -74 -118 -45 -171
-73 -279 -145 -280 -188 -486 -492 -552 -818 -12 -55 -21 -104 -21 -107 0 -3
-131 -6 -291 -6 l-292 0 7 78 c16 174 92 424 187 614 240 479 690 847 1200
982 114 31 239 54 297 55 l42 1 0 -290z m558 259 c573 -124 1060 -507 1313
-1034 94 -197 159 -413 175 -592 l7 -73 -292 0 c-160 0 -291 3 -291 6 0 35
-48 222 -74 292 -45 118 -73 171 -145 279 -188 281 -492 486 -820 553 -55 11
-102 20 -105 20 -3 0 -6 131 -6 291 l0 292 71 -7 c39 -3 114 -16 167 -27z
m-556 -1136 c3 -227 4 -243 24 -270 67 -89 201 -89 268 0 20 27 21 42 24 265
1 130 4 242 7 249 5 16 106 -8 211 -51 303 -123 525 -394 598 -728 l6 -27
-249 -3 c-236 -3 -251 -4 -278 -24 -89 -67 -89 -201 0 -268 27 -20 42 -21 265
-24 130 -1 242 -4 249 -7 9 -3 8 -19 -3 -64 -62 -268 -244 -505 -494 -644 -63
-35 -211 -89 -277 -101 l-32 -5 -3 249 c-3 235 -4 250 -24 277 -67 89 -201 89
-268 0 -20 -27 -21 -42 -24 -277 l-3 -249 -32 5 c-66 12 -214 66 -277 101
-250 139 -432 376 -494 644 -11 45 -12 61 -3 64 7 3 119 6 249 7 223 3 238 4
265 24 89 67 89 201 0 268 -27 20 -42 21 -277 24 l-249 3 6 32 c14 79 70 226
114 298 118 197 275 337 470 420 82 35 211 70 221 61 4 -4 8 -116 10 -249z
m-1152 -889 c0 -39 50 -232 81 -311 135 -344 408 -617 752 -752 79 -31 272
-81 311 -81 3 0 6 -131 6 -291 l0 -292 -77 7 c-43 4 -133 20 -200 36 -621 148
-1123 592 -1347 1193 -45 121 -93 316 -102 420 l-7 77 292 0 c160 0 291 -3
291 -6z m3196 -66 c-4 -40 -18 -124 -32 -187 -124 -551 -496 -1026 -1002
-1280 -190 -95 -440 -171 -614 -187 l-78 -7 0 292 c0 160 3 291 6 291 39 0
232 50 311 81 344 135 617 408 752 752 31 79 81 272 81 311 0 3 131 6 291 6
l292 0 -7 -72z"/>
<path d="M2475 2807 c-127 -51 -188 -153 -172 -287 7 -60 27 -99 72 -145 59
-58 90 -70 185 -70 95 0 126 12 185 70 58 59 70 90 70 185 0 62 -5 94 -18 117
-24 46 -77 96 -123 118 -47 23 -156 30 -199 12z"/>
</g>
</svg>
